<svg xmlns="http://www.w3.org/2000/svg" viewBox="0 0 746.35952 847.63124"><circle cx="373.17983" cy="170.7776" r="95.86322" transform="translate(-11.16743 26.88404) rotate(-4.06506)" style="fill:#161616"/><path d="M401.134,588.71546c24.46123-3.61981,121.34519-22.561,212.70539-104.38868C697.79051,409.13513,734.15111,325.73959,745.788,293.78464a9.27814,9.27814,0,0,0-9.70138-12.39918c-34.27536,3.5847-124.80733,19.10694-205.66432,85.56358-97.82532,80.40277-124.91064,134.39782-132.363,159.49774a1.2151,1.2151,0,0,1-2.37939-.35364s2.196-162.953,3.98706-185.64215c116.25281-9.6369,206.59381-81.91895,206.59381-169.6734C606.26076,76.45972,501.90694,0,373.17977,0,244.45272,0,140.09883,76.45972,140.09883,170.77759c0,88.29388,91.45142,160.93365,208.73682,169.8529,3.54346,32.97882,1.84424,185.46338,1.84424,185.46338a1.21518,1.21518,0,0,1-2.37952.35364c-7.452-25.09961-34.537-79.09491-132.36316-159.49847-80.857-66.45664-171.389-81.97888-205.66432-85.56358A9.27814,9.27814,0,0,0,.5715,293.78466c11.63694,31.955,47.99767,115.35049,131.9486,190.54212C223.88058,566.1546,320.76464,585.0957,345.22578,588.71546a6.38136,6.38136,0,0,1,5.45416,6.311l0,156.822a1.216,1.216,0,0,1-2.39491.303c-7.3692-29.366-32.986-97.8139-117.9513-152.48024-78.93079-50.78375-162.9701-63.51269-196.75952-61.91272-6.7334.31885-12.42835,7.88947-10.58289,14.08851,9.139,30.69854,38.94177,109.89135,116.65588,173.46685,84.51123,69.136,180.93409,85.881,205.50684,89.14911q.29674.03946.58368.10528a6.20362,6.20362,0,0,1,4.24078,8.17873l-6.80918,19.05421a4.35828,4.35828,0,0,0,4.10364,5.82492l47.92136.00509a4.35828,4.35828,0,0,0,4.29337-5.11031l-3.80777-21.73675a6.37343,6.37343,0,0,1,5.52588-6.32123c24.573-3.26813,120.9956-20.01318,205.50653-89.149,77.71411-63.5755,107.51684-142.76831,116.65588-173.46685,1.84558-6.199-3.84948-13.76966-10.58288-14.08851-33.78931-1.6-117.82874,11.129-196.75946,61.91272-84.96457,54.666-110.5816,123.11324-117.95117,152.47967a1.21592,1.21592,0,0,1-2.3948-.303l0-156.82141A6.38137,6.38137,0,0,1,401.134,588.71546ZM204.93941,173.91919a4.44273,4.44273,0,0,1,0-6.28314l82.06348-82.06458a121.87164,121.87164,0,0,1,172.35376,0l82.0636,82.06458a4.443,4.443,0,0,1,0,6.28314l-82.0636,82.06457a121.87173,121.87173,0,0,1-172.35376,0Z" style="fill:#161616"/></svg>