<svg width="321" height="321" viewBox="0 0 321 321" fill="none" xmlns="http://www.w3.org/2000/svg">
<path d="M319.304 181.018C319.016 183.235 317.532 185.257 315.238 187.22C312.951 189.177 309.969 190.983 306.869 192.799C306.526 192.999 306.182 193.2 305.838 193.401C303.089 195.005 300.307 196.629 297.987 198.352C295.388 200.281 293.24 202.425 292.393 204.946C291.523 207.532 291.913 210.586 292.801 213.734C293.618 216.631 294.894 219.725 296.147 222.76C296.26 223.036 296.374 223.311 296.487 223.585C297.855 226.909 299.14 230.134 299.791 233.044C300.443 235.965 300.419 238.417 299.345 240.284C298.247 242.191 296.118 243.47 293.253 244.39C290.398 245.307 286.955 245.825 283.394 246.313C283.041 246.361 282.687 246.409 282.332 246.457C279.136 246.89 275.892 247.33 273.041 248.051C269.889 248.848 267.07 250.021 265.3 252.042C263.519 254.077 262.719 257.035 262.341 260.272C261.995 263.225 261.989 266.535 261.982 269.789C261.982 270.117 261.981 270.445 261.98 270.771C261.969 274.366 261.917 277.843 261.394 280.789C260.87 283.746 259.897 286.017 258.17 287.346C256.444 288.676 254 289.037 251.007 288.789C248.025 288.542 244.65 287.705 241.172 286.798C240.855 286.715 240.538 286.632 240.221 286.549C237.073 285.724 233.872 284.885 230.928 284.465C227.702 284.005 224.638 284.023 222.216 285.225C219.809 286.42 217.955 288.846 216.38 291.691C214.955 294.263 213.702 297.287 212.467 300.267C212.33 300.598 212.193 300.927 212.056 301.256C210.675 304.575 209.296 307.772 207.68 310.298C206.059 312.833 204.279 314.565 202.154 315.139C200.075 315.701 197.698 315.099 195.041 313.722C192.393 312.35 189.603 310.283 186.739 308.112C186.502 307.933 186.265 307.753 186.028 307.572C183.413 305.587 180.748 303.563 178.155 302.033C175.339 300.37 172.485 299.214 169.764 299.395C167.11 299.57 164.488 301.099 161.959 303.119C159.701 304.922 157.421 307.198 155.168 309.446C154.886 309.728 154.604 310.009 154.322 310.289C151.775 312.823 149.268 315.245 146.791 316.956C144.308 318.673 141.974 319.592 139.757 319.304C137.539 319.016 135.517 317.532 133.555 315.238C131.598 312.951 129.792 309.969 127.976 306.869C127.775 306.526 127.575 306.182 127.374 305.838C125.77 303.089 124.146 300.307 122.423 297.987C120.493 295.388 118.349 293.24 115.828 292.393C113.243 291.523 110.189 291.913 107.041 292.801C104.144 293.618 101.05 294.894 98.0148 296.147C97.7392 296.26 97.4641 296.374 97.1896 296.487C93.8658 297.855 90.6409 299.14 87.7308 299.791C84.8095 300.444 82.3579 300.419 80.4907 299.345C78.5836 298.247 77.3048 296.118 76.3845 293.253C75.4672 290.398 74.9495 286.955 74.4619 283.394C74.4137 283.041 74.3657 282.687 74.3176 282.332C73.8842 279.136 73.4443 275.892 72.7238 273.041C71.9269 269.889 70.754 267.07 68.7323 265.3C66.6975 263.519 63.7399 262.719 60.5027 262.341C57.5491 261.995 54.2398 261.989 50.9853 261.982C50.6573 261.982 50.3298 261.981 50.0034 261.98C46.4085 261.97 42.9314 261.917 39.9852 261.394C37.0285 260.87 34.758 259.897 33.4283 258.17C32.0985 256.444 31.7372 254 31.9851 251.007C32.2322 248.025 33.0692 244.65 33.9767 241.172C34.0592 240.855 34.1423 240.538 34.2255 240.221C35.0504 237.073 35.8893 233.872 36.3092 230.928C36.7696 227.702 36.7518 224.638 35.5492 222.216C34.3544 219.809 31.9282 217.955 29.0836 216.38C26.5115 214.956 23.4872 213.702 20.5075 212.467C20.177 212.33 19.8471 212.193 19.5185 212.056C16.1991 210.675 13.0029 209.296 10.4765 207.68C7.94179 206.059 6.2093 204.279 5.63515 202.154C5.07302 200.075 5.67575 197.698 7.05289 195.041C8.42474 192.393 10.4913 189.603 12.6625 186.739C12.8418 186.502 13.0218 186.265 13.2021 186.028C15.1879 183.413 17.2118 180.748 18.7419 178.155C20.4041 175.339 21.5604 172.485 21.38 169.764C21.2041 167.11 19.6752 164.488 17.6555 161.959C15.852 159.701 13.5766 157.421 11.3283 155.168C11.0466 154.885 10.7654 154.604 10.4856 154.322C7.95139 151.775 5.52981 149.268 3.81806 146.792C2.1013 144.308 1.1829 141.974 1.47078 139.757C1.75866 137.539 3.24253 135.517 5.53647 133.555C7.8237 131.598 10.8052 129.792 13.9058 127.976C14.2483 127.775 14.5922 127.575 14.9366 127.374C17.6856 125.77 20.4677 124.146 22.788 122.423C25.3866 120.493 27.5341 118.349 28.3819 115.828C29.2512 113.243 28.8618 110.189 27.9739 107.041C27.1565 104.144 25.8802 101.05 24.6279 98.0146C24.5142 97.7391 24.4007 97.464 24.2878 97.1897C22.9199 93.8659 21.6342 90.6409 20.9839 87.7308C20.331 84.8095 20.3551 82.358 21.4296 80.4908C22.5271 78.5837 24.6567 77.3049 27.5214 76.3846C30.3766 75.4673 33.8191 74.9496 37.381 74.462C37.7337 74.4138 38.0876 74.3658 38.4421 74.3177C41.6384 73.8843 44.8826 73.4444 47.7332 72.7239C50.8856 71.927 53.7048 70.7541 55.4745 68.7324C57.2557 66.6976 58.0552 63.7399 58.434 60.5028C58.7796 57.5495 58.7859 54.2403 58.7921 50.9861C58.7927 50.6578 58.7933 50.3301 58.7943 50.0034C58.805 46.4086 58.8576 42.9314 59.3801 39.9853C59.9045 37.0286 60.8779 34.7581 62.6044 33.4283C64.3309 32.0986 66.7747 31.7372 69.7673 31.9852C72.7492 32.2322 76.1245 33.0692 79.6029 33.9768C79.919 34.0593 80.236 34.1423 80.5535 34.2255C83.7015 35.0505 86.9025 35.8893 89.8462 36.3093C93.0727 36.7696 96.1365 36.7518 98.5586 35.5492C100.965 34.3544 102.819 31.9282 104.394 29.0837C105.819 26.5116 107.073 23.4873 108.308 20.5076C108.445 20.1771 108.582 19.8472 108.718 19.5185C110.099 16.1991 111.479 13.0029 113.095 10.4766C114.716 7.94188 116.496 6.20939 118.62 5.63524C120.7 5.07311 123.076 5.67584 125.734 7.05297C128.381 8.42482 131.171 10.4914 134.036 12.6626C134.272 12.8418 134.509 13.0218 134.746 13.2021C137.361 15.1879 140.026 17.2119 142.619 18.742C145.436 20.4041 148.289 21.5605 151.011 21.3801C153.665 21.2042 156.286 19.6752 158.815 17.6555C161.074 15.852 163.354 13.5766 165.607 11.3283C165.889 11.0467 166.171 10.7655 166.452 10.4857C169 7.95145 171.507 5.52987 173.983 3.81812C176.466 2.10136 178.8 1.18296 181.018 1.47084C183.235 1.75872 185.257 3.2426 187.22 5.53653C189.177 7.82377 190.983 10.8052 192.799 13.9059C192.999 14.2483 193.2 14.5921 193.401 14.9365C195.005 17.6855 196.628 20.4677 198.352 22.7881C200.281 25.3866 202.425 27.5342 204.946 28.382C207.532 29.2513 210.586 28.8619 213.733 27.974C216.631 27.1566 219.725 25.8803 222.76 24.628C223.035 24.5143 223.31 24.4008 223.585 24.2879C226.909 22.92 230.134 21.6343 233.044 20.9839C235.965 20.3311 238.417 20.3551 240.284 21.4297C242.191 22.5272 243.47 24.6568 244.39 27.5215C245.307 30.3766 245.825 33.8191 246.313 37.3811C246.361 37.7337 246.409 38.0875 246.457 38.4419C246.89 41.6383 247.33 44.8825 248.051 47.7332C248.848 50.8857 250.021 53.7048 252.042 55.4746C254.077 57.2557 257.035 58.0552 260.272 58.434C263.225 58.7796 266.534 58.7859 269.788 58.7922C270.117 58.7928 270.444 58.7934 270.771 58.7944C274.366 58.8051 277.843 58.8577 280.789 59.3802C283.746 59.9046 286.016 60.878 287.346 62.6045C288.676 64.331 289.037 66.7748 288.789 69.7674C288.542 72.7493 287.705 76.1246 286.798 79.603C286.715 79.9189 286.632 80.2356 286.549 80.5529C285.724 83.7011 284.885 86.9024 284.465 89.8463C284.005 93.0728 284.023 96.1366 285.225 98.5587C286.42 100.965 288.846 102.819 291.691 104.395C294.263 105.819 297.288 107.073 300.267 108.308C300.598 108.445 300.927 108.582 301.256 108.718C304.575 110.099 307.772 111.479 310.298 113.095C312.833 114.716 314.565 116.496 315.139 118.62C315.701 120.7 315.099 123.076 313.722 125.734C312.35 128.382 310.283 131.171 308.112 134.036C307.933 134.272 307.753 134.509 307.573 134.746C305.587 137.361 303.563 140.026 302.033 142.619C300.37 145.436 299.214 148.289 299.395 151.011C299.57 153.665 301.099 156.286 303.119 158.815C304.923 161.074 307.198 163.354 309.447 165.607C309.728 165.889 310.009 166.171 310.289 166.452C312.823 169 315.245 171.507 316.956 173.983C318.673 176.466 319.592 178.8 319.304 181.018Z" stroke="black" stroke-width="1.5"/>
</svg>
